<svg xmlns="http://www.w3.org/2000/svg"  viewBox="0 0 32 32" width="256px" height="256px"><polygon fill="#ed0049" points="14,9 14,14 8,14 8,18 18,18 18,9"/><path fill="#0f518c" d="M26.236,20c-1.604,4.091-5.583,7-10.236,7s-8.631-2.909-10.236-7H1.558 C3.314,26.333,9.115,31,16,31s12.686-4.667,14.442-11H26.236z"/><path fill="#0f518c" d="M5.191,18C5.071,17.35,5,16.684,5,16C5,9.935,9.935,5,16,5s11,4.935,11,11 c0,0.684-0.071,1.35-0.191,2h4.042C30.938,17.344,31,16.68,31,16c0-8.271-6.729-15-15-15S1,7.729,1,16 c0,0.68,0.062,1.344,0.149,2H5.191z"/></svg>